<svg width="151" height="134" viewBox="0 0 151 134" fill="none" xmlns="http://www.w3.org/2000/svg">
<path d="M147.628 91.1181C143.961 86.2541 137.67 81.8391 128.755 77.8745C141.477 77.626 148.24 72.9813 149.051 63.9407C149.385 60.6739 148.644 57.549 146.825 54.5611C145.004 51.5722 142.222 48.794 138.467 46.2222C134.716 43.6497 130.518 41.309 125.884 39.1999C121.249 37.0904 115.848 34.9788 109.683 32.867L114.321 14.9336L96.0465 9.72911L91.5378 27.1643C88.3733 26.263 83.5351 24.936 77.0237 23.1835L81.5692 5.60603L63.2923 0.400838L58.6547 18.3343C56.0308 17.6381 52.1879 16.5696 47.1246 15.1276L21.9845 7.89072L18.9664 19.5618L32.1385 23.3132C38.1515 25.0257 41.255 27.6418 41.4492 31.1603L36.1675 51.5848C36.9597 51.8104 37.5856 52.0149 38.0485 52.1975L36.1489 51.6565L28.7512 80.2633C27.4934 82.5023 24.8863 83.0596 20.93 81.9328L7.75872 78.1817L0.711406 90.1571L24.4469 96.9169C25.9503 97.3451 28.1216 97.9763 30.9654 98.8092C33.807 99.6442 35.9392 100.264 37.3637 100.67L32.671 118.816L50.9508 124.023L55.5883 106.089C58.8978 107.084 63.7177 108.482 70.0471 110.284L65.4281 128.146L83.7029 133.35L88.3956 115.204C94.9336 116.862 100.78 118.147 105.938 119.054C111.097 119.961 116.116 120.513 120.992 120.704C125.868 120.896 130.063 120.6 133.578 119.819C137.094 119.039 140.189 117.652 142.873 115.666C145.55 113.677 147.604 111.078 149.027 107.866C151.765 101.568 151.297 95.9837 147.628 91.1181ZM74.067 36.0925C74.6211 36.2503 76.1867 36.6833 78.7642 37.3917C81.3431 38.0999 83.4844 38.6846 85.1915 39.1451C86.8989 39.6062 89.178 40.3189 92.0301 41.284C94.881 42.2487 97.2643 43.1317 99.1803 43.9316C101.096 44.7315 103.173 45.7433 105.403 46.9643C107.638 48.186 109.363 49.3909 110.583 50.5786C111.806 51.7672 112.755 53.1075 113.429 54.5986C114.107 56.0902 114.242 57.6187 113.838 59.184C113.494 60.5125 112.826 61.6214 111.832 62.5106C110.84 63.3994 109.533 64.008 107.92 64.3382C106.307 64.6685 104.675 64.892 103.031 65.0089C101.388 65.1263 99.354 65.0186 96.935 64.6859C94.5164 64.3538 92.4117 64.0346 90.6232 63.7286C88.8332 63.4227 86.6242 62.9341 83.9947 62.2612C81.3647 61.5882 79.3737 61.0731 78.0233 60.7137C76.6717 60.3539 74.8328 59.8302 72.5041 59.1418C70.1749 58.4533 68.8152 58.0527 68.4186 57.9398L74.0683 36.0926L74.0671 36.0922L74.067 36.0925ZM111.44 98.7672C110.404 99.6443 109.191 100.318 107.796 100.787C106.4 101.254 104.652 101.521 102.556 101.585C100.459 101.651 98.4495 101.613 96.5332 101.475C94.614 101.338 92.3322 101.042 89.6895 100.596C87.0412 100.148 84.736 99.7066 82.7648 99.2734C80.7966 98.8405 78.459 98.2762 75.7494 97.5816C73.0424 96.8856 70.9352 96.3243 69.4326 95.8963C67.9291 95.4681 66.0333 94.9143 63.7448 94.2376C61.4548 93.5616 59.9955 93.1332 59.3621 92.9528L65.5825 68.8984C66.2147 69.0785 68.1 69.5905 71.2383 70.4324C74.3769 71.2749 76.9328 71.9789 78.9109 72.5423C80.8887 73.1056 83.6011 73.9533 87.0465 75.0884C90.4891 76.2205 93.3616 77.2669 95.6636 78.2281C97.9624 79.189 100.438 80.3646 103.096 81.7588C105.75 83.1512 107.839 84.5226 109.359 85.8725C110.879 87.2237 112.06 88.7298 112.902 90.3964C113.748 92.0631 113.949 93.7505 113.507 95.4589C113.163 96.7886 112.475 97.8896 111.44 98.7672Z" fill="black"/>
</svg>
