<svg width="31" height="22" viewBox="0 0 31 22" fill="none" xmlns="http://www.w3.org/2000/svg">
<line y1="5.5011" x2="30.688" y2="5.5011" stroke="black" stroke-width="3"/>
<line y1="16.7028" x2="30.688" y2="16.7028" stroke="black" stroke-width="3"/>
<path d="M12.3426 4.90075C12.3426 7.10108 10.6546 8.80149 8.67272 8.80149C6.6908 8.80149 5.00281 7.10108 5.00281 4.90075C5.00281 2.70041 6.6908 1 8.67272 1C10.6546 1 12.3426 2.70041 12.3426 4.90075Z" fill="white" stroke="black" stroke-width="2"/>
<path d="M27.0195 16.1025C27.0195 18.3028 25.3315 20.0032 23.3496 20.0032C21.3677 20.0032 19.6797 18.3028 19.6797 16.1025C19.6797 13.9021 21.3677 12.2017 23.3496 12.2017C25.3315 12.2017 27.0195 13.9021 27.0195 16.1025Z" fill="white" stroke="black" stroke-width="2"/>
</svg>
