<svg width="32" height="34" viewBox="0 0 32 34" fill="none" xmlns="http://www.w3.org/2000/svg">
<g clip-path="url(#clip0)">
<path d="M29.2593 22.7687L29.4142 17.6427C29.5423 13.4028 27.5608 9.15489 23.1257 6.22032L15.833 5.99999L15 33.5704L22.2928 33.7907C26.8903 31.1331 29.1311 27.0138 29.2593 22.7687ZM17.0347 31.7922L17.0347 31.7921L17.7566 7.89781L22.4646 8.04005C25.6954 10.2859 27.5483 13.8324 27.435 17.5829L27.2801 22.709C27.1668 26.4595 25.1032 29.8877 21.7428 31.9344L17.0347 31.7922Z" fill="#A3A3A3"/>
<path d="M22.2593 22.7687L22.4142 17.6427C22.5423 13.4028 20.5608 9.15489 16.1257 6.22032L8.83296 5.99999L8.00001 33.5704L15.2928 33.7907C19.8903 31.1331 22.1311 27.0138 22.2593 22.7687ZM10.0347 31.7922L10.0347 31.7921L10.7566 7.89781L15.4646 8.04005C18.6954 10.2859 20.5483 13.8324 20.435 17.5829L20.2801 22.709C20.1668 26.4595 18.1032 29.8877 14.7428 31.9344L10.0347 31.7922Z" fill="#A3A3A3"/>
<path d="M15.2593 22.7687L15.4142 17.6427C15.5423 13.4028 13.5608 9.15487 9.12573 6.2203L1.83296 5.99998L1.00001 33.5703L8.29279 33.7907C12.8903 31.133 15.1311 27.0138 15.2593 22.7687ZM3.03473 31.7922L3.03473 31.7921L3.75662 7.8978L8.46464 8.04003C11.6954 10.2859 13.5483 13.8324 13.435 17.5829L13.2801 22.709C13.1668 26.4595 11.1032 29.8877 7.74275 31.9344L3.03473 31.7922Z" fill="#A3A3A3"/>
</g>
<defs>
<clipPath id="clip0">
<rect width="31.3833" height="33.7935" fill="white"/>
</clipPath>
</defs>
</svg>
