<svg width="34" height="34" viewBox="0 0 34 34" fill="none" xmlns="http://www.w3.org/2000/svg">
<path d="M30.6215 8.24978H30.2141V3.98887C30.2141 2.21057 28.8705 0.763733 27.219 0.763733H5.49534C3.09812 0.763733 1.12161 2.73815 0.89345 5.256C0.858605 5.43391 0.871013 3.84862 0.871013 28.4029C0.871013 31.1485 2.94544 33.3823 5.49528 33.3823H30.6215C32.273 33.3823 33.6166 31.9355 33.6166 30.1571V11.4749C33.6166 9.69662 32.2731 8.24978 30.6215 8.24978ZM5.49534 2.97906H27.219C27.7361 2.97906 28.1568 3.43208 28.1568 3.98894V8.24985H5.49534C4.12 8.24985 2.9941 7.07901 2.93136 5.61445C2.99404 4.14982 4.11994 2.97906 5.49534 2.97906ZM30.6215 31.167H5.49534C4.07988 31.167 2.92833 29.927 2.92833 28.4029V9.62559C3.66323 10.1557 4.5463 10.465 5.49534 10.465H30.6215C31.1387 10.465 31.5594 10.9181 31.5594 11.4749V15.9654H23.8184C21.1821 15.9654 19.0373 18.2749 19.0373 21.1136C19.0373 23.9524 21.1821 26.2619 23.8184 26.2619H31.5594V30.1571C31.5594 30.714 31.1387 31.167 30.6215 31.167ZM31.5594 24.0467H23.8184C22.3165 24.0467 21.0946 22.731 21.0946 21.1137C21.0946 19.4964 22.3164 18.1807 23.8184 18.1807H31.5594V24.0467Z" fill="#A5A5A5"/>
</svg>
