<svg width="71" height="51" viewBox="0 0 71 51" fill="none" xmlns="http://www.w3.org/2000/svg">
<path d="M16.2955 48.5292L35.5 39.8726L54.7045 48.5292L51.75 32.2981L68 18.2311H45.8409L35.5 2L23.6818 18.2311H3L20.7273 32.2981L16.2955 48.5292Z" stroke="#CAD0D7" stroke-width="2"/>
<path d="M16.2955 48.5292L35.5 39.8726L54.7045 48.5292L51.75 32.2981L68 18.2311H45.8409L35.5 2L23.6818 18.2311H3L20.7273 32.2981L16.2955 48.5292Z" stroke="#CAD0D7" stroke-width="2"/>
<path d="M16.2955 48.5292L35.5 39.8726L54.7045 48.5292L51.75 32.2981L68 18.2311H45.8409L35.5 2L23.6818 18.2311H3L20.7273 32.2981L16.2955 48.5292Z" stroke="black" stroke-width="2"/>
</svg>
