<svg width="557" height="48" viewBox="0 0 557 48" fill="none" xmlns="http://www.w3.org/2000/svg">
<path opacity="0.6" d="M79.0586 42.3613C79.0586 43.6309 78.8418 44.5742 78.4082 45.1914C77.9746 45.8086 77.2969 46.1172 76.375 46.1172C75.4648 46.1172 74.791 45.8164 74.3535 45.2148C73.916 44.6094 73.6895 43.707 73.6738 42.5078V41.0605C73.6738 39.8066 73.8906 38.875 74.3242 38.2656C74.7578 37.6562 75.4375 37.3516 76.3633 37.3516C77.2812 37.3516 77.957 37.6465 78.3906 38.2363C78.8242 38.8223 79.0469 39.7285 79.0586 40.9551V42.3613ZM77.9746 40.8789C77.9746 39.9609 77.8457 39.293 77.5879 38.875C77.3301 38.4531 76.9219 38.2422 76.3633 38.2422C75.8086 38.2422 75.4043 38.4512 75.1504 38.8691C74.8965 39.2871 74.7656 39.9297 74.7578 40.7969V42.5312C74.7578 43.4531 74.8906 44.1348 75.1562 44.5762C75.4258 45.0137 75.832 45.2324 76.375 45.2324C76.9102 45.2324 77.3066 45.0254 77.5645 44.6113C77.8262 44.1973 77.9629 43.5449 77.9746 42.6543V40.8789ZM86.0371 46H80.4473V45.2207L83.4004 41.9395C83.8379 41.4434 84.1387 41.041 84.3027 40.7324C84.4707 40.4199 84.5547 40.0977 84.5547 39.7656C84.5547 39.3203 84.4199 38.9551 84.1504 38.6699C83.8809 38.3848 83.5215 38.2422 83.0723 38.2422C82.5332 38.2422 82.1133 38.3965 81.8125 38.7051C81.5156 39.0098 81.3672 39.4355 81.3672 39.9824H80.2832C80.2832 39.1973 80.5352 38.5625 81.0391 38.0781C81.5469 37.5938 82.2246 37.3516 83.0723 37.3516C83.8652 37.3516 84.4922 37.5605 84.9531 37.9785C85.4141 38.3926 85.6445 38.9453 85.6445 39.6367C85.6445 40.4766 85.1094 41.4766 84.0391 42.6367L81.7539 45.1152H86.0371V46ZM87.2617 45.4316C87.2617 45.2441 87.3164 45.0879 87.4258 44.9629C87.5391 44.8379 87.707 44.7754 87.9297 44.7754C88.1523 44.7754 88.3203 44.8379 88.4336 44.9629C88.5508 45.0879 88.6094 45.2441 88.6094 45.4316C88.6094 45.6113 88.5508 45.7617 88.4336 45.8828C88.3203 46.0039 88.1523 46.0645 87.9297 46.0645C87.707 46.0645 87.5391 46.0039 87.4258 45.8828C87.3164 45.7617 87.2617 45.6113 87.2617 45.4316ZM87.2676 40.2578C87.2676 40.0703 87.3223 39.9141 87.4316 39.7891C87.5449 39.6641 87.7129 39.6016 87.9355 39.6016C88.1582 39.6016 88.3262 39.6641 88.4395 39.7891C88.5566 39.9141 88.6152 40.0703 88.6152 40.2578C88.6152 40.4375 88.5566 40.5879 88.4395 40.709C88.3262 40.8301 88.1582 40.8906 87.9355 40.8906C87.7129 40.8906 87.5449 40.8301 87.4316 40.709C87.3223 40.5879 87.2676 40.4375 87.2676 40.2578ZM93.6543 46H92.5645V38.7754L90.3789 39.5781V38.5938L93.4844 37.4277H93.6543V46ZM102.18 42.3613C102.18 43.6309 101.963 44.5742 101.529 45.1914C101.096 45.8086 100.418 46.1172 99.4961 46.1172C98.5859 46.1172 97.9121 45.8164 97.4746 45.2148C97.0371 44.6094 96.8105 43.707 96.7949 42.5078V41.0605C96.7949 39.8066 97.0117 38.875 97.4453 38.2656C97.8789 37.6562 98.5586 37.3516 99.4844 37.3516C100.402 37.3516 101.078 37.6465 101.512 38.2363C101.945 38.8223 102.168 39.7285 102.18 40.9551V42.3613ZM101.096 40.8789C101.096 39.9609 100.967 39.293 100.709 38.875C100.451 38.4531 100.043 38.2422 99.4844 38.2422C98.9297 38.2422 98.5254 38.4512 98.2715 38.8691C98.0176 39.2871 97.8867 39.9297 97.8789 40.7969V42.5312C97.8789 43.4531 98.0117 44.1348 98.2773 44.5762C98.5469 45.0137 98.9531 45.2324 99.4961 45.2324C100.031 45.2324 100.428 45.0254 100.686 44.6113C100.947 44.1973 101.084 43.5449 101.096 42.6543V40.8789Z" fill="white"/>
<path opacity="0.6" d="M532.952 42.3613C532.952 43.6309 532.735 44.5742 532.301 45.1914C531.868 45.8086 531.19 46.1172 530.268 46.1172C529.358 46.1172 528.684 45.8164 528.247 45.2148C527.809 44.6094 527.583 43.707 527.567 42.5078V41.0605C527.567 39.8066 527.784 38.875 528.217 38.2656C528.651 37.6562 529.331 37.3516 530.256 37.3516C531.174 37.3516 531.85 37.6465 532.284 38.2363C532.717 38.8223 532.94 39.7285 532.952 40.9551V42.3613ZM531.868 40.8789C531.868 39.9609 531.739 39.293 531.481 38.875C531.223 38.4531 530.815 38.2422 530.256 38.2422C529.702 38.2422 529.297 38.4512 529.043 38.8691C528.79 39.2871 528.659 39.9297 528.651 40.7969V42.5312C528.651 43.4531 528.784 44.1348 529.049 44.5762C529.319 45.0137 529.725 45.2324 530.268 45.2324C530.803 45.2324 531.2 45.0254 531.458 44.6113C531.719 44.1973 531.856 43.5449 531.868 42.6543V40.8789ZM535.917 41.207H536.731C537.243 41.1992 537.645 41.0645 537.938 40.8027C538.231 40.541 538.377 40.1875 538.377 39.7422C538.377 38.7422 537.879 38.2422 536.883 38.2422C536.415 38.2422 536.04 38.377 535.758 38.6465C535.481 38.9121 535.342 39.2656 535.342 39.707H534.258C534.258 39.0312 534.504 38.4707 534.997 38.0254C535.493 37.5762 536.122 37.3516 536.883 37.3516C537.688 37.3516 538.319 37.5645 538.776 37.9902C539.233 38.416 539.461 39.0078 539.461 39.7656C539.461 40.1367 539.34 40.4961 539.098 40.8438C538.86 41.1914 538.534 41.4512 538.12 41.623C538.588 41.7715 538.95 42.0176 539.204 42.3613C539.461 42.7051 539.59 43.125 539.59 43.6211C539.59 44.3867 539.34 44.9941 538.84 45.4434C538.34 45.8926 537.69 46.1172 536.889 46.1172C536.088 46.1172 535.436 45.9004 534.932 45.4668C534.432 45.0332 534.182 44.4609 534.182 43.75H535.272C535.272 44.1992 535.418 44.5586 535.711 44.8281C536.004 45.0977 536.397 45.2324 536.889 45.2324C537.413 45.2324 537.813 45.0957 538.09 44.8223C538.368 44.5488 538.506 44.1562 538.506 43.6445C538.506 43.1484 538.354 42.7676 538.049 42.502C537.745 42.2363 537.305 42.0996 536.731 42.0918H535.917V41.207ZM541.155 45.4316C541.155 45.2441 541.209 45.0879 541.319 44.9629C541.432 44.8379 541.6 44.7754 541.823 44.7754C542.045 44.7754 542.213 44.8379 542.327 44.9629C542.444 45.0879 542.502 45.2441 542.502 45.4316C542.502 45.6113 542.444 45.7617 542.327 45.8828C542.213 46.0039 542.045 46.0645 541.823 46.0645C541.6 46.0645 541.432 46.0039 541.319 45.8828C541.209 45.7617 541.155 45.6113 541.155 45.4316ZM541.161 40.2578C541.161 40.0703 541.215 39.9141 541.325 39.7891C541.438 39.6641 541.606 39.6016 541.829 39.6016C542.051 39.6016 542.219 39.6641 542.333 39.7891C542.45 39.9141 542.508 40.0703 542.508 40.2578C542.508 40.4375 542.45 40.5879 542.333 40.709C542.219 40.8301 542.051 40.8906 541.829 40.8906C541.606 40.8906 541.438 40.8301 541.325 40.709C541.215 40.5879 541.161 40.4375 541.161 40.2578ZM545.561 41.207H546.375C546.887 41.1992 547.29 41.0645 547.583 40.8027C547.875 40.541 548.022 40.1875 548.022 39.7422C548.022 38.7422 547.524 38.2422 546.528 38.2422C546.059 38.2422 545.684 38.377 545.403 38.6465C545.125 38.9121 544.987 39.2656 544.987 39.707H543.903C543.903 39.0312 544.149 38.4707 544.641 38.0254C545.137 37.5762 545.766 37.3516 546.528 37.3516C547.333 37.3516 547.963 37.5645 548.42 37.9902C548.877 38.416 549.106 39.0078 549.106 39.7656C549.106 40.1367 548.985 40.4961 548.743 40.8438C548.504 41.1914 548.178 41.4512 547.764 41.623C548.233 41.7715 548.594 42.0176 548.848 42.3613C549.106 42.7051 549.235 43.125 549.235 43.6211C549.235 44.3867 548.985 44.9941 548.485 45.4434C547.985 45.8926 547.334 46.1172 546.534 46.1172C545.733 46.1172 545.081 45.9004 544.577 45.4668C544.077 45.0332 543.827 44.4609 543.827 43.75H544.917C544.917 44.1992 545.063 44.5586 545.356 44.8281C545.649 45.0977 546.042 45.2324 546.534 45.2324C547.057 45.2324 547.458 45.0957 547.735 44.8223C548.012 44.5488 548.151 44.1562 548.151 43.6445C548.151 43.1484 547.999 42.7676 547.694 42.502C547.389 42.2363 546.95 42.0996 546.375 42.0918H545.561V41.207ZM554.877 42.25C554.651 42.5195 554.379 42.7363 554.063 42.9004C553.75 43.0645 553.407 43.1465 553.032 43.1465C552.54 43.1465 552.11 43.0254 551.743 42.7832C551.379 42.541 551.098 42.2012 550.899 41.7637C550.7 41.3223 550.6 40.8359 550.6 40.3047C550.6 39.7344 550.708 39.2207 550.922 38.7637C551.141 38.3066 551.45 37.957 551.848 37.7148C552.247 37.4727 552.711 37.3516 553.243 37.3516C554.086 37.3516 554.75 37.668 555.235 38.3008C555.723 38.9297 555.967 39.7891 555.967 40.8789V41.1953C555.967 42.8555 555.639 44.0684 554.983 44.834C554.327 45.5957 553.336 45.9863 552.012 46.0059H551.801V45.0918H552.03C552.924 45.0762 553.612 44.8438 554.092 44.3945C554.573 43.9414 554.834 43.2266 554.877 42.25ZM553.208 42.25C553.571 42.25 553.905 42.1387 554.209 41.916C554.518 41.6934 554.743 41.418 554.883 41.0898V40.6562C554.883 39.9453 554.729 39.3672 554.42 38.9219C554.112 38.4766 553.721 38.2539 553.249 38.2539C552.772 38.2539 552.389 38.4375 552.1 38.8047C551.811 39.168 551.667 39.6484 551.667 40.2461C551.667 40.8281 551.805 41.3086 552.083 41.6875C552.364 42.0625 552.739 42.25 553.208 42.25Z" fill="white"/>
<g clip-path="url(#clip0)">
<path opacity="0.5" fill-rule="evenodd" clip-rule="evenodd" d="M0 16C0 16 2.7372 13.2245 4.37956 12.7347C4.98493 12.5542 5.85806 12.3914 6.78511 12.2185C8.37315 11.9224 10.1194 11.5969 10.949 11.102C11.4223 10.8198 12.1682 10.1579 13.0691 9.35869C15.2945 7.38428 18.465 4.57143 20.8032 4.57143C22.6115 4.57143 25.0834 6.35269 27.3056 7.954C29.12 9.26147 30.768 10.449 31.7522 10.449C32.7365 10.449 34.1633 10.9768 35.7341 11.5579C37.658 12.2696 39.7981 13.0612 41.6064 13.0612C43.1855 13.0612 45.2707 12.1556 47.4362 11.2152C49.7752 10.1994 52.208 9.14286 54.1978 9.14286C56.1877 9.14286 58.6205 9.49503 60.9595 9.83363C63.125 10.1471 65.2102 10.449 66.7893 10.449C68.4316 10.449 70.3477 9.55102 72.2638 8.65306C74.1799 7.7551 76.096 6.85714 77.7383 6.85714C79.3591 6.85714 80.9366 7.57261 82.5348 8.29751C84.1757 9.04175 85.8385 9.79592 87.5925 9.79592C89.4008 9.79592 91.7068 11.1813 93.7798 12.4268C95.4725 13.4437 97.0098 14.3673 97.9941 14.3673H110.586C112.653 14.3673 114.477 12.0381 116.402 9.57912C118.555 6.82987 120.835 3.91837 123.724 3.91837C128.059 3.91837 132.089 5.37412 135.894 6.74875C139.297 7.97825 142.521 9.14286 145.623 9.14286C148.159 9.14286 149.97 8.27776 151.727 7.43813C153.384 6.64652 154.994 5.87755 157.119 5.87755C159.583 5.87755 161.225 8 162.867 10.1224C164.51 12.2449 166.152 14.3673 168.616 14.3673C171.701 14.3673 173.743 12.7084 175.525 11.2601C176.906 10.1383 178.131 9.14286 179.565 9.14286C181.912 9.14286 183.944 8.01755 185.831 6.97304C187.465 6.06847 188.989 5.22449 190.514 5.22449C192.878 5.22449 194.394 6.06608 195.886 6.89475C197.334 7.69835 198.759 8.4898 200.915 8.4898C203.534 8.4898 205.843 6.09264 208.007 3.84589C209.915 1.86445 211.711 0 213.507 0C215.697 0 217.339 3.59184 218.981 7.18367C220.624 10.7755 222.266 14.3673 224.456 14.3673H238.69C240.023 14.3673 241.893 13.6617 243.689 12.9839C245.348 12.3576 246.945 11.7551 247.996 11.7551C248.981 11.7551 250.739 10.5676 252.676 9.26012C255.047 7.65881 257.685 5.87755 259.493 5.87755C261.072 5.87755 262.525 6.78313 264.033 7.72359C265.663 8.73941 267.357 9.79592 269.347 9.79592C271.909 9.79592 274.604 8.8269 277.058 7.94463C279.109 7.20733 280.991 6.53061 282.486 6.53061C284.509 6.53061 286.026 8.199 287.526 9.84923C288.993 11.4639 290.445 13.0612 292.34 13.0612C294.53 13.0612 296.446 11.4286 298.362 9.79592C300.278 8.16327 302.194 6.53061 304.384 6.53061C306.647 6.53061 308.472 7.75102 310.235 8.9307C311.885 10.0342 313.481 11.102 315.333 11.102C317.401 11.102 318.981 9.06399 320.648 6.91235C322.513 4.50675 324.488 1.95918 327.377 1.95918C330.187 1.95918 331.554 4.88279 332.886 7.72941C334.149 10.43 335.38 13.0612 337.779 13.0612C340.178 13.0612 342.057 10.2752 343.986 7.41579C346.02 4.40172 348.108 1.30612 350.918 1.30612C353.63 1.30612 355.347 3.2853 356.891 5.06454C358.151 6.51728 359.296 7.83673 360.772 7.83673C362.473 7.83673 363.957 8.86547 365.609 10.01C367.68 11.4446 370.014 13.0612 373.363 13.0612C376.446 13.0612 377.52 10.4942 378.569 7.98825C379.569 5.59898 380.546 3.26531 383.218 3.26531C385.664 3.26531 387.768 5.50592 389.626 7.48445C391.095 9.04861 392.411 10.449 393.619 10.449C397.054 10.449 398.393 10.9844 399.672 11.4955C400.839 11.962 401.956 12.4082 404.568 12.4082C407.24 12.4082 408.869 9.76332 410.537 7.05547C412.285 4.21545 414.077 1.30612 417.16 1.30612C420.367 1.30612 422.634 3.77118 424.513 5.81329C425.841 7.25728 426.975 8.4898 428.109 8.4898C430.507 8.4898 432.128 9.26369 433.79 10.058C435.543 10.8952 437.343 11.7551 440.153 11.7551C442.343 11.7551 443.985 9.4694 445.627 7.18369C447.27 4.89797 448.912 2.61225 451.102 2.61225C453.449 2.61225 456.11 5.30828 458.581 7.81075C460.72 9.97796 462.716 12 464.241 12C470.81 12 473 14.3333 473 16C473 17.6667 470.81 20 464.241 20C462.716 20 460.72 22.022 458.581 24.1893C456.11 26.6917 453.449 29.3878 451.102 29.3878C448.912 29.3878 447.27 27.102 445.627 24.8163C443.985 22.5306 442.343 20.2449 440.153 20.2449C437.343 20.2449 435.543 21.1048 433.79 21.942C432.128 22.7363 430.507 23.5102 428.109 23.5102C426.975 23.5102 425.841 24.7427 424.513 26.1867C422.634 28.2288 420.367 30.6939 417.16 30.6939C414.077 30.6939 412.285 27.7845 410.537 24.9445C408.869 22.2367 407.24 19.5918 404.568 19.5918C401.956 19.5918 400.839 20.038 399.672 20.5045C398.393 21.0156 397.054 21.551 393.619 21.551C392.411 21.551 391.095 22.9514 389.626 24.5155C387.768 26.4941 385.664 28.7347 383.218 28.7347C380.546 28.7347 379.569 26.401 378.569 24.0117C377.52 21.5058 376.446 18.9388 373.363 18.9388C370.014 18.9388 367.68 20.5554 365.609 21.99C363.957 23.1345 362.473 24.1633 360.772 24.1633C359.296 24.1633 358.151 25.4827 356.891 26.9355C355.347 28.7147 353.63 30.6939 350.918 30.6939C348.108 30.6939 346.02 27.5983 343.986 24.5842C342.057 21.7248 340.178 18.9388 337.779 18.9388C335.38 18.9388 334.149 21.57 332.886 24.2706C331.554 27.1172 330.187 30.0408 327.377 30.0408C324.488 30.0408 322.513 27.4932 320.648 25.0876C318.981 22.936 317.401 20.898 315.333 20.898C313.481 20.898 311.885 21.9658 310.235 23.0693C308.472 24.249 306.647 25.4694 304.384 25.4694C302.194 25.4694 300.278 23.8367 298.362 22.2041C296.446 20.5714 294.53 18.9388 292.34 18.9388C290.445 18.9388 288.993 20.5361 287.526 22.1508C286.026 23.801 284.509 25.4694 282.486 25.4694C280.991 25.4694 279.109 24.7927 277.058 24.0554C274.604 23.1731 271.909 22.2041 269.347 22.2041C267.357 22.2041 265.663 23.2606 264.033 24.2764C262.525 25.2169 261.072 26.1224 259.493 26.1224C257.685 26.1224 255.047 24.3412 252.676 22.7399C250.739 21.4324 248.981 20.2449 247.996 20.2449C246.945 20.2449 245.348 19.6424 243.689 19.0161C241.893 18.3383 240.023 17.6327 238.69 17.6327H224.456C222.266 17.6327 220.624 21.2245 218.981 24.8163C217.339 28.4082 215.697 32 213.507 32C211.711 32 209.915 30.1355 208.007 28.1541C205.843 25.9074 203.534 23.5102 200.915 23.5102C198.759 23.5102 197.334 24.3017 195.886 25.1053C194.394 25.9339 192.878 26.7755 190.514 26.7755C188.989 26.7755 187.465 25.9315 185.831 25.027C183.944 23.9824 181.912 22.8571 179.565 22.8571C178.131 22.8571 176.906 21.8617 175.525 20.7399C173.743 19.2916 171.701 17.6327 168.616 17.6327C166.152 17.6327 164.51 19.7551 162.867 21.8776C161.225 24 159.583 26.1224 157.119 26.1224C154.994 26.1224 153.384 25.3535 151.727 24.5619C149.97 23.7222 148.159 22.8571 145.623 22.8571C142.521 22.8571 139.297 24.0217 135.894 25.2512C132.089 26.6259 128.059 28.0816 123.724 28.0816C120.835 28.0816 118.555 25.1701 116.402 22.4209C114.477 19.9619 112.653 17.6327 110.586 17.6327H97.9941C97.0098 17.6327 95.4725 18.5563 93.7798 19.5732C91.7068 20.8187 89.4008 22.2041 87.5925 22.2041C85.8385 22.2041 84.1757 22.9583 82.5348 23.7025C80.9366 24.4274 79.3591 25.1429 77.7383 25.1429C76.096 25.1429 74.1799 24.2449 72.2638 23.3469C70.3477 22.449 68.4316 21.551 66.7893 21.551C65.2102 21.551 63.125 21.8529 60.9595 22.1664C58.6205 22.505 56.1877 22.8571 54.1978 22.8571C52.208 22.8571 49.7752 21.8006 47.4362 20.7848C45.2707 19.8444 43.1855 18.9388 41.6064 18.9388C39.7981 18.9388 37.658 19.7304 35.7341 20.4421C34.1633 21.0232 32.7365 21.551 31.7522 21.551C30.768 21.551 29.12 22.7385 27.3056 24.046C25.0834 25.6473 22.6115 27.4286 20.8032 27.4286C18.465 27.4286 15.2945 24.6157 13.0691 22.6413C12.1682 21.8421 11.4223 21.1802 10.949 20.898C10.1194 20.4031 8.37315 20.0776 6.78511 19.7815C5.85806 19.6086 4.98493 19.4458 4.37956 19.2653C2.7372 18.7755 0 16 0 16Z" fill="#FFCD06"/>
<path fill-rule="evenodd" clip-rule="evenodd" d="M0 16C0 16 2.7372 14.4966 4.37956 14.2313C4.98493 14.1335 5.85806 14.0454 6.78511 13.9517C8.37315 13.7914 10.1194 13.615 10.949 13.347C11.4223 13.1941 12.1682 12.8356 13.0691 12.4027C15.2945 11.3332 18.465 9.80956 20.8032 9.80956C22.6115 9.80956 25.0834 10.7744 27.3056 11.6418C29.12 12.35 30.768 12.9932 31.7522 12.9932C32.7365 12.9932 34.1633 13.2791 35.7341 13.5939C37.658 13.9794 39.7981 14.4082 41.6064 14.4082C43.1855 14.4082 45.2707 13.9177 47.4362 13.4083C49.7752 12.858 52.208 12.2858 54.1978 12.2858C56.1877 12.2858 58.6205 12.4765 60.9595 12.6599C63.125 12.8297 65.2102 12.9932 66.7893 12.9932C68.4316 12.9932 70.3477 12.5068 72.2638 12.0204C74.1799 11.5341 76.096 11.0477 77.7383 11.0477C79.3591 11.0477 80.9366 11.4352 82.5348 11.8279C84.1757 12.231 85.8385 12.6395 87.5925 12.6395C89.4008 12.6395 91.7068 13.3899 93.7798 14.0646C95.4725 14.6154 97.0098 15.1157 97.9941 15.1157H110.586C112.653 15.1157 114.477 13.854 116.402 12.5221C118.555 11.0329 120.835 9.45582 123.724 9.45582C128.059 9.45582 132.089 10.2444 135.894 10.9889C139.297 11.6549 142.521 12.2858 145.623 12.2858C148.159 12.2858 149.97 11.8172 151.727 11.3624C153.384 10.9336 154.994 10.517 157.119 10.517C159.583 10.517 161.225 11.6667 162.867 12.8164C164.51 13.966 166.152 15.1157 168.616 15.1157C171.701 15.1157 173.743 14.2171 175.525 13.4326C176.906 12.8249 178.131 12.2858 179.565 12.2858C181.912 12.2858 183.944 11.6762 185.831 11.1104C187.465 10.6205 188.989 10.1633 190.514 10.1633C192.878 10.1633 194.394 10.6192 195.886 11.068C197.334 11.5033 198.759 11.932 200.915 11.932C203.534 11.932 205.843 10.6336 208.007 9.41656C209.915 8.34328 211.711 7.33337 213.507 7.33337C215.697 7.33337 217.339 9.27895 218.981 11.2245C220.624 13.1701 222.266 15.1157 224.456 15.1157H238.69C240.023 15.1157 241.893 14.7335 243.689 14.3663C245.348 14.0271 246.945 13.7007 247.996 13.7007C248.981 13.7007 250.739 13.0575 252.676 12.3493C255.047 11.4819 257.685 10.517 259.493 10.517C261.072 10.517 262.525 11.0076 264.033 11.517C265.663 12.0672 267.357 12.6395 269.347 12.6395C271.909 12.6395 274.604 12.1146 277.058 11.6367C279.109 11.2373 280.991 10.8708 282.486 10.8708C284.509 10.8708 286.026 11.7745 287.526 12.6684C288.993 13.543 290.445 14.4082 292.34 14.4082C294.53 14.4082 296.446 13.5238 298.362 12.6395C300.278 11.7551 302.194 10.8708 304.384 10.8708C306.647 10.8708 308.472 11.5318 310.235 12.1708C311.885 12.7686 313.481 13.347 315.333 13.347C317.401 13.347 318.981 12.243 320.648 11.0776C322.513 9.77453 324.488 8.3946 327.377 8.3946C330.187 8.3946 331.554 9.97822 332.886 11.5201C334.149 12.9829 335.38 14.4082 337.779 14.4082C340.178 14.4082 342.057 12.8991 343.986 11.3503C346.02 9.71764 348.108 8.04086 350.918 8.04086C353.63 8.04086 355.347 9.11291 356.891 10.0767C358.151 10.8636 359.296 11.5783 360.772 11.5783C362.473 11.5783 363.957 12.1355 365.609 12.7554C367.68 13.5326 370.014 14.4082 373.363 14.4082C376.446 14.4082 377.52 13.0177 378.569 11.6603C379.569 10.3662 380.546 9.10208 383.218 9.10208C385.664 9.10208 387.768 10.3157 389.626 11.3875C391.095 12.2347 392.411 12.9932 393.619 12.9932C397.054 12.9932 398.393 13.2833 399.672 13.5601C400.839 13.8128 401.956 14.0545 404.568 14.0545C407.24 14.0545 408.869 12.6218 410.537 11.1551C412.285 9.61674 414.077 8.04086 417.16 8.04086C420.367 8.04086 422.634 9.37609 424.513 10.4822C425.841 11.2644 426.975 11.932 428.109 11.932C430.507 11.932 432.128 12.3512 433.79 12.7814C435.543 13.2349 437.343 13.7007 440.153 13.7007C442.343 13.7007 443.985 12.4626 445.627 11.2245C447.27 9.98644 448.912 8.74834 451.102 8.74834C453.449 8.74834 456.11 10.2087 458.581 11.5642C460.72 12.7381 462.716 13.8334 464.241 13.8334C470.81 13.8334 473 15.0973 473 16H0ZM0 16.0001C0 16.0001 2.7372 17.5035 4.37956 17.7688C4.98493 17.8666 5.85806 17.9548 6.78511 18.0484C8.37315 18.2088 10.1194 18.3851 10.949 18.6531C11.4223 18.806 12.1682 19.1645 13.0691 19.5975C15.2945 20.6669 18.465 22.1906 20.8032 22.1906C22.6115 22.1906 25.0834 21.2257 27.3056 20.3583C29.12 19.6501 30.768 19.0069 31.7522 19.0069C32.7365 19.0069 34.1633 18.721 35.7341 18.4062C37.658 18.0207 39.7981 17.5919 41.6064 17.5919C43.1855 17.5919 45.2707 18.0824 47.4362 18.5919C49.7752 19.1421 52.208 19.7144 54.1978 19.7144C56.1877 19.7144 58.6205 19.5236 60.9595 19.3402C63.125 19.1704 65.2102 19.0069 66.7893 19.0069C68.4316 19.0069 70.3477 19.4933 72.2638 19.9797C74.1799 20.4661 76.096 20.9525 77.7383 20.9525C79.3591 20.9525 80.9366 20.5649 82.5348 20.1723C84.1757 19.7691 85.8385 19.3606 87.5925 19.3606C89.4008 19.3606 91.7068 18.6102 93.7798 17.9356C95.4725 17.3847 97.0098 16.8844 97.9941 16.8844H110.586C112.653 16.8844 114.477 18.1461 116.402 19.4781C118.555 20.9672 120.835 22.5443 123.724 22.5443C128.059 22.5443 132.089 21.7558 135.894 21.0112C139.297 20.3452 142.521 19.7144 145.623 19.7144C148.159 19.7144 149.97 20.183 151.727 20.6378C153.384 21.0665 154.994 21.4831 157.119 21.4831C159.583 21.4831 161.225 20.3334 162.867 19.1838C164.51 18.0341 166.152 16.8844 168.616 16.8844C171.701 16.8844 173.743 17.7831 175.525 18.5675C176.906 19.1752 178.131 19.7144 179.565 19.7144C181.912 19.7144 183.944 20.3239 185.831 20.8897C187.465 21.3797 188.989 21.8368 190.514 21.8368C192.878 21.8368 194.394 21.381 195.886 20.9321C197.334 20.4968 198.759 20.0681 200.915 20.0681C203.534 20.0681 205.843 21.3666 208.007 22.5836C209.915 23.6568 211.711 24.6667 213.507 24.6667C215.697 24.6667 217.339 22.7212 218.981 20.7756C220.624 18.83 222.266 16.8844 224.456 16.8844H238.69C240.023 16.8844 241.893 17.2667 243.689 17.6338C245.348 17.973 246.945 18.2994 247.996 18.2994C248.981 18.2994 250.739 18.9426 252.676 19.6508C255.047 20.5182 257.685 21.4831 259.493 21.4831C261.072 21.4831 262.525 20.9926 264.033 20.4831C265.663 19.9329 267.357 19.3606 269.347 19.3606C271.909 19.3606 274.604 19.8855 277.058 20.3634C279.109 20.7628 280.991 21.1293 282.486 21.1293C284.509 21.1293 286.026 20.2256 287.526 19.3317C288.993 18.4571 290.445 17.5919 292.34 17.5919C294.53 17.5919 296.446 18.4763 298.362 19.3606C300.278 20.245 302.194 21.1293 304.384 21.1293C306.647 21.1293 308.472 20.4683 310.235 19.8293C311.885 19.2316 313.481 18.6531 315.333 18.6531C317.401 18.6531 318.981 19.7571 320.648 20.9226C322.513 22.2256 324.488 23.6055 327.377 23.6055C330.187 23.6055 331.554 22.0219 332.886 20.48C334.149 19.0172 335.38 17.5919 337.779 17.5919C340.178 17.5919 342.057 19.101 343.986 20.6499C346.02 22.2825 348.108 23.9593 350.918 23.9593C353.63 23.9593 355.347 22.8872 356.891 21.9235C358.151 21.1366 359.296 20.4218 360.772 20.4218C362.473 20.4218 363.957 19.8646 365.609 19.2447C367.68 18.4676 370.014 17.5919 373.363 17.5919C376.446 17.5919 377.52 18.9824 378.569 20.3398C379.569 21.634 380.546 22.898 383.218 22.898C385.664 22.898 387.768 21.6844 389.626 20.6127C391.095 19.7654 392.411 19.0069 393.619 19.0069C397.054 19.0069 398.393 18.7169 399.672 18.44C400.839 18.1873 401.956 17.9457 404.568 17.9457C407.24 17.9457 408.869 19.3783 410.537 20.845C412.285 22.3834 414.077 23.9593 417.16 23.9593C420.367 23.9593 422.634 22.624 424.513 21.5179C425.841 20.7357 426.975 20.0681 428.109 20.0681C430.507 20.0681 432.128 19.6489 433.79 19.2187C435.543 18.7652 437.343 18.2994 440.153 18.2994C442.343 18.2994 443.985 19.5375 445.627 20.7756C447.27 22.0137 448.912 23.2518 451.102 23.2518C453.449 23.2518 456.11 21.7914 458.581 20.4359C460.72 19.262 462.716 18.1667 464.241 18.1667C470.81 18.1667 473 16.9029 473 16.0001H0Z" fill="#FFCD06"/>
</g>
<g clip-path="url(#clip1)">
<path opacity="0.4" fill-rule="evenodd" clip-rule="evenodd" d="M73 16C73 16 75.8009 13.2245 77.4814 12.7347C78.1009 12.5542 78.9943 12.3914 79.9429 12.2185C81.5679 11.9224 83.3547 11.5969 84.2036 11.102C84.6879 10.8198 85.4512 10.1579 86.373 9.35869C88.6502 7.38428 91.8944 4.57143 94.287 4.57143C96.1373 4.57143 98.6667 6.35269 100.941 7.95401C102.797 9.26147 104.483 10.449 105.491 10.449C106.498 10.449 107.958 10.9768 109.565 11.5579C111.534 12.2696 113.724 13.0612 115.574 13.0612C117.19 13.0612 119.324 12.1556 121.539 11.2152C123.933 10.1994 126.422 9.14286 128.458 9.14286C130.494 9.14286 132.984 9.49503 135.377 9.83363C137.593 10.1471 139.727 10.449 141.343 10.449C143.023 10.449 144.984 9.55102 146.944 8.65306C148.905 7.7551 150.866 6.85714 152.546 6.85714C154.205 6.85714 155.819 7.57261 157.454 8.29751C159.133 9.04175 160.835 9.79592 162.63 9.79592C164.48 9.79592 166.84 11.1813 168.961 12.4268C170.693 13.4437 172.266 14.3673 173.273 14.3673H186.157C188.273 14.3673 190.139 12.0381 192.109 9.57913C194.312 6.82987 196.645 3.91837 199.602 3.91837C204.037 3.91837 208.161 5.37412 212.054 6.74875C215.537 7.97825 218.835 9.14286 222.009 9.14286C224.604 9.14286 226.457 8.27776 228.256 7.43813C229.951 6.64652 231.598 5.87755 233.773 5.87755C236.294 5.87755 237.974 8 239.655 10.1225C241.336 12.2449 243.016 14.3673 245.537 14.3673C248.694 14.3673 250.783 12.7084 252.607 11.2601C254.02 10.1383 255.274 9.14286 256.741 9.14286C259.142 9.14286 261.222 8.01755 263.153 6.97304C264.825 6.06847 266.384 5.22449 267.944 5.22449C270.364 5.22449 271.915 6.06608 273.442 6.89475C274.923 7.69835 276.382 8.4898 278.588 8.4898C281.267 8.4898 283.63 6.09264 285.844 3.84589C287.797 1.86445 289.635 0 291.472 0C293.713 0 295.393 3.59184 297.074 7.18367C298.755 10.7755 300.435 14.3673 302.676 14.3673H317.241C318.605 14.3673 320.518 13.6617 322.356 12.9839C324.054 12.3576 325.688 11.7551 326.764 11.7551C327.771 11.7551 329.57 10.5676 331.552 9.26011C333.978 7.6588 336.677 5.87755 338.528 5.87755C340.144 5.87755 341.63 6.78313 343.173 7.72359C344.841 8.73941 346.575 9.79592 348.611 9.79592C351.233 9.79592 353.991 8.8269 356.501 7.94462C358.6 7.20733 360.525 6.53061 362.056 6.53061C364.126 6.53061 365.677 8.199 367.212 9.84923C368.714 11.4639 370.2 13.0612 372.139 13.0612C374.38 13.0612 376.34 11.4286 378.301 9.79592C380.262 8.16327 382.222 6.53061 384.463 6.53061C386.779 6.53061 388.645 7.75102 390.45 8.9307C392.138 10.0342 393.771 11.102 395.667 11.102C397.783 11.102 399.399 9.06399 401.105 6.91236C403.013 4.50676 405.034 1.95918 407.991 1.95918C410.865 1.95918 412.265 4.88278 413.628 7.7294C414.92 10.43 416.18 13.0612 418.634 13.0612C421.089 13.0612 423.012 10.2752 424.986 7.41579C427.067 4.40171 429.204 1.30612 432.079 1.30612C434.854 1.30612 436.611 3.28529 438.19 5.06453C439.48 6.51728 440.651 7.83673 442.162 7.83673C443.902 7.83673 445.422 8.86547 447.112 10.01C449.231 11.4446 451.619 13.0612 455.046 13.0612C458.201 13.0612 459.3 10.4942 460.373 7.98827C461.396 5.59899 462.395 3.26531 465.13 3.26531C467.632 3.26531 469.786 5.5059 471.687 7.48442C473.191 9.0486 474.536 10.449 475.773 10.449C479.287 10.449 480.658 10.9844 481.967 11.4955C483.161 11.962 484.303 12.4082 486.977 12.4082C489.711 12.4082 491.378 9.76332 493.084 7.05547C494.873 4.21545 496.707 1.30612 499.861 1.30612C503.143 1.30612 505.463 3.77118 507.385 5.8133C508.744 7.25728 509.905 8.4898 511.065 8.4898C513.519 8.4898 515.177 9.2637 516.879 10.058C518.672 10.8952 520.514 11.7551 523.389 11.7551C525.63 11.7551 527.31 9.4694 528.991 7.18369C530.671 4.89797 532.352 2.61225 534.593 2.61225C536.994 2.61225 539.718 5.30828 542.245 7.81076C544.435 9.97797 546.477 12 548.037 12C554.759 12 557 14.3333 557 16C557 17.6667 554.759 20 548.037 20C546.477 20 544.435 22.022 542.245 24.1892C539.718 26.6917 536.994 29.3878 534.593 29.3878C532.352 29.3878 530.671 27.102 528.991 24.8163C527.31 22.5306 525.63 20.2449 523.389 20.2449C520.514 20.2449 518.672 21.1048 516.879 21.942C515.177 22.7363 513.519 23.5102 511.065 23.5102C509.905 23.5102 508.744 24.7427 507.385 26.1867C505.463 28.2288 503.143 30.6939 499.861 30.6939C496.707 30.6939 494.873 27.7846 493.084 24.9445C491.378 22.2367 489.711 19.5918 486.977 19.5918C484.303 19.5918 483.161 20.038 481.967 20.5045C480.658 21.0156 479.287 21.551 475.773 21.551C474.536 21.551 473.191 22.9514 471.687 24.5156C469.786 26.4941 467.632 28.7347 465.13 28.7347C462.395 28.7347 461.396 26.401 460.373 24.0117C459.3 21.5058 458.201 18.9388 455.046 18.9388C451.619 18.9388 449.231 20.5554 447.112 21.99C445.422 23.1345 443.902 24.1633 442.162 24.1633C440.651 24.1633 439.48 25.4827 438.19 26.9355C436.611 28.7147 434.854 30.6939 432.079 30.6939C429.204 30.6939 427.067 27.5983 424.986 24.5842C423.012 21.7248 421.089 18.9388 418.634 18.9388C416.18 18.9388 414.92 21.57 413.628 24.2706C412.265 27.1172 410.865 30.0408 407.991 30.0408C405.034 30.0408 403.013 27.4932 401.105 25.0876C399.399 22.936 397.783 20.898 395.667 20.898C393.771 20.898 392.138 21.9658 390.45 23.0693C388.645 24.249 386.779 25.4694 384.463 25.4694C382.222 25.4694 380.262 23.8367 378.301 22.2041C376.34 20.5714 374.38 18.9388 372.139 18.9388C370.2 18.9388 368.714 20.5361 367.212 22.1508C365.677 23.801 364.126 25.4694 362.056 25.4694C360.525 25.4694 358.6 24.7927 356.501 24.0554C353.991 23.1731 351.233 22.2041 348.611 22.2041C346.575 22.2041 344.841 23.2606 343.173 24.2764C341.63 25.2169 340.144 26.1224 338.528 26.1224C336.677 26.1224 333.978 24.3412 331.552 22.7399C329.57 21.4324 327.771 20.2449 326.764 20.2449C325.688 20.2449 324.054 19.6424 322.356 19.0161C320.518 18.3383 318.605 17.6327 317.241 17.6327H302.676C300.435 17.6327 298.755 21.2245 297.074 24.8163C295.393 28.4082 293.713 32 291.472 32C289.635 32 287.797 30.1355 285.844 28.1541C283.63 25.9074 281.267 23.5102 278.588 23.5102C276.382 23.5102 274.923 24.3017 273.442 25.1053C271.915 25.9339 270.364 26.7755 267.944 26.7755C266.384 26.7755 264.825 25.9315 263.153 25.027C261.222 23.9824 259.142 22.8571 256.741 22.8571C255.274 22.8571 254.02 21.8617 252.607 20.7399C250.783 19.2916 248.694 17.6327 245.537 17.6327C243.016 17.6327 241.336 19.7551 239.655 21.8775C237.974 24 236.294 26.1224 233.773 26.1224C231.598 26.1224 229.951 25.3535 228.256 24.5619C226.457 23.7222 224.604 22.8571 222.009 22.8571C218.835 22.8571 215.537 24.0217 212.054 25.2513C208.161 26.6259 204.037 28.0816 199.602 28.0816C196.645 28.0816 194.312 25.1701 192.109 22.4209C190.139 19.9619 188.273 17.6327 186.157 17.6327H173.273C172.266 17.6327 170.693 18.5563 168.961 19.5732C166.84 20.8187 164.48 22.2041 162.63 22.2041C160.835 22.2041 159.133 22.9583 157.454 23.7025C155.819 24.4274 154.205 25.1429 152.546 25.1429C150.866 25.1429 148.905 24.2449 146.944 23.3469C144.984 22.449 143.023 21.551 141.343 21.551C139.727 21.551 137.593 21.8529 135.377 22.1664C132.984 22.505 130.494 22.8571 128.458 22.8571C126.422 22.8571 123.933 21.8006 121.539 20.7848C119.324 19.8444 117.19 18.9388 115.574 18.9388C113.724 18.9388 111.534 19.7304 109.565 20.4421C107.958 21.0232 106.498 21.551 105.491 21.551C104.483 21.551 102.797 22.7385 100.941 24.046C98.6667 25.6473 96.1373 27.4286 94.287 27.4286C91.8944 27.4286 88.6502 24.6157 86.373 22.6413C85.4512 21.8421 84.6879 21.1802 84.2036 20.898C83.3547 20.4031 81.5679 20.0776 79.9429 19.7815C78.9943 19.6086 78.1009 19.4458 77.4814 19.2653C75.8009 18.7755 73 16 73 16Z" fill="#FFCD06"/>
<path fill-rule="evenodd" clip-rule="evenodd" d="M73 16C73 16 75.8009 14.4966 77.4814 14.2313C78.1009 14.1335 78.9943 14.0454 79.9429 13.9517C81.5679 13.7914 83.3547 13.615 84.2036 13.347C84.6879 13.1941 85.4512 12.8356 86.373 12.4027C88.6502 11.3332 91.8944 9.80956 94.287 9.80956C96.1373 9.80956 98.6667 10.7744 100.941 11.6418C102.797 12.35 104.483 12.9932 105.491 12.9932C106.498 12.9932 107.958 13.2791 109.565 13.5939C111.534 13.9794 113.724 14.4082 115.574 14.4082C117.19 14.4082 119.324 13.9177 121.539 13.4083C123.933 12.858 126.422 12.2858 128.458 12.2858C130.494 12.2858 132.984 12.4765 135.377 12.6599C137.593 12.8297 139.727 12.9932 141.343 12.9932C143.023 12.9932 144.984 12.5068 146.944 12.0204C148.905 11.5341 150.866 11.0477 152.546 11.0477C154.205 11.0477 155.819 11.4352 157.454 11.8279C159.133 12.231 160.835 12.6395 162.63 12.6395C164.48 12.6395 166.84 13.3899 168.961 14.0646C170.693 14.6154 172.266 15.1157 173.273 15.1157H186.157C188.273 15.1157 190.139 13.854 192.109 12.5221C194.312 11.0329 196.645 9.45582 199.602 9.45582C204.037 9.45582 208.161 10.2444 212.054 10.9889C215.537 11.6549 218.835 12.2858 222.009 12.2858C224.604 12.2858 226.457 11.8172 228.256 11.3624C229.951 10.9336 231.598 10.517 233.773 10.517C236.294 10.517 237.974 11.6667 239.655 12.8164C241.336 13.966 243.016 15.1157 245.537 15.1157C248.694 15.1157 250.783 14.2171 252.607 13.4326C254.02 12.8249 255.274 12.2858 256.741 12.2858C259.142 12.2858 261.222 11.6762 263.153 11.1104C264.825 10.6205 266.384 10.1633 267.944 10.1633C270.364 10.1633 271.915 10.6192 273.442 11.068C274.923 11.5033 276.382 11.932 278.588 11.932C281.267 11.932 283.63 10.6336 285.844 9.41657C287.797 8.34329 289.635 7.33337 291.472 7.33337C293.713 7.33337 295.393 9.27895 297.074 11.2245C298.755 13.1701 300.435 15.1157 302.676 15.1157H317.241C318.605 15.1157 320.518 14.7335 322.356 14.3663C324.054 14.0271 325.688 13.7007 326.764 13.7007C327.771 13.7007 329.57 13.0575 331.552 12.3493C333.978 11.4819 336.677 10.517 338.528 10.517C340.144 10.517 341.63 11.0076 343.173 11.517C344.841 12.0672 346.575 12.6395 348.611 12.6395C351.233 12.6395 353.991 12.1146 356.501 11.6367C358.6 11.2373 360.525 10.8708 362.056 10.8708C364.126 10.8708 365.677 11.7745 367.212 12.6684C368.714 13.543 370.2 14.4082 372.139 14.4082C374.38 14.4082 376.34 13.5238 378.301 12.6395C380.262 11.7551 382.222 10.8708 384.463 10.8708C386.779 10.8708 388.645 11.5318 390.45 12.1708C392.138 12.7686 393.771 13.347 395.667 13.347C397.783 13.347 399.399 12.243 401.105 11.0776C403.013 9.77453 405.034 8.3946 407.991 8.3946C410.865 8.3946 412.265 9.97821 413.628 11.5201C414.92 12.9829 416.18 14.4082 418.634 14.4082C421.089 14.4082 423.012 12.8991 424.986 11.3503C427.067 9.71764 429.204 8.04086 432.079 8.04086C434.854 8.04086 436.611 9.11291 438.19 10.0767C439.48 10.8636 440.651 11.5783 442.162 11.5783C443.902 11.5783 445.422 12.1355 447.112 12.7554C449.231 13.5326 451.619 14.4082 455.046 14.4082C458.201 14.4082 459.3 13.0177 460.373 11.6603C461.396 10.3662 462.395 9.10208 465.13 9.10208C467.632 9.10208 469.786 10.3157 471.687 11.3874C473.191 12.2347 474.536 12.9932 475.773 12.9932C479.287 12.9932 480.658 13.2833 481.967 13.5601C483.161 13.8128 484.303 14.0545 486.977 14.0545C489.711 14.0545 491.378 12.6218 493.084 11.1551C494.873 9.61674 496.707 8.04086 499.861 8.04086C503.143 8.04086 505.463 9.3761 507.385 10.4822C508.744 11.2644 509.905 11.932 511.065 11.932C513.519 11.932 515.177 12.3512 516.879 12.7814C518.672 13.2349 520.514 13.7007 523.389 13.7007C525.63 13.7007 527.31 12.4626 528.991 11.2245C530.671 9.98644 532.352 8.74834 534.593 8.74834C536.994 8.74834 539.718 10.2087 542.245 11.5642C544.435 12.7381 546.477 13.8334 548.037 13.8334C554.759 13.8334 557 15.0973 557 16H73ZM73 16.0001C73 16.0001 75.8009 17.5035 77.4814 17.7688C78.1009 17.8666 78.9943 17.9548 79.9429 18.0484C81.5679 18.2088 83.3547 18.3851 84.2036 18.6531C84.6879 18.806 85.4512 19.1645 86.373 19.5975C88.6502 20.6669 91.8944 22.1906 94.287 22.1906C96.1373 22.1906 98.6667 21.2257 100.941 20.3583C102.797 19.6501 104.483 19.0069 105.491 19.0069C106.498 19.0069 107.958 18.721 109.565 18.4062C111.534 18.0207 113.724 17.5919 115.574 17.5919C117.19 17.5919 119.324 18.0824 121.539 18.5919C123.933 19.1421 126.422 19.7144 128.458 19.7144C130.494 19.7144 132.984 19.5236 135.377 19.3402C137.593 19.1704 139.727 19.0069 141.343 19.0069C143.023 19.0069 144.984 19.4933 146.944 19.9797C148.905 20.4661 150.866 20.9525 152.546 20.9525C154.205 20.9525 155.819 20.5649 157.454 20.1723C159.133 19.7691 160.835 19.3606 162.63 19.3606C164.48 19.3606 166.84 18.6102 168.961 17.9356C170.693 17.3847 172.266 16.8844 173.273 16.8844H186.157C188.273 16.8844 190.139 18.1461 192.109 19.4781C194.312 20.9672 196.645 22.5443 199.602 22.5443C204.037 22.5443 208.161 21.7558 212.054 21.0112C215.537 20.3452 218.835 19.7144 222.009 19.7144C224.604 19.7144 226.457 20.183 228.256 20.6378C229.951 21.0665 231.598 21.4831 233.773 21.4831C236.294 21.4831 237.974 20.3334 239.655 19.1838C241.336 18.0341 243.016 16.8844 245.537 16.8844C248.694 16.8844 250.783 17.7831 252.607 18.5675C254.02 19.1752 255.274 19.7144 256.741 19.7144C259.142 19.7144 261.222 20.3239 263.153 20.8897C264.825 21.3797 266.384 21.8368 267.944 21.8368C270.364 21.8368 271.915 21.381 273.442 20.9321C274.923 20.4968 276.382 20.0681 278.588 20.0681C281.267 20.0681 283.63 21.3666 285.844 22.5836C287.797 23.6568 289.635 24.6667 291.472 24.6667C293.713 24.6667 295.393 22.7212 297.074 20.7756C298.755 18.83 300.435 16.8844 302.676 16.8844H317.241C318.605 16.8844 320.518 17.2667 322.356 17.6338C324.054 17.973 325.688 18.2994 326.764 18.2994C327.771 18.2994 329.57 18.9426 331.552 19.6509C333.978 20.5182 336.677 21.4831 338.528 21.4831C340.144 21.4831 341.63 20.9926 343.173 20.4831C344.841 19.9329 346.575 19.3606 348.611 19.3606C351.233 19.3606 353.991 19.8855 356.501 20.3634C358.6 20.7628 360.525 21.1293 362.056 21.1293C364.126 21.1293 365.677 20.2256 367.212 19.3317C368.714 18.4571 370.2 17.5919 372.139 17.5919C374.38 17.5919 376.34 18.4763 378.301 19.3606C380.262 20.245 382.222 21.1293 384.463 21.1293C386.779 21.1293 388.645 20.4683 390.45 19.8293C392.138 19.2316 393.771 18.6531 395.667 18.6531C397.783 18.6531 399.399 19.7571 401.105 20.9226C403.013 22.2256 405.034 23.6055 407.991 23.6055C410.865 23.6055 412.265 22.0219 413.628 20.48C414.92 19.0172 416.18 17.5919 418.634 17.5919C421.089 17.5919 423.012 19.101 424.986 20.6499C427.067 22.2825 429.204 23.9593 432.079 23.9593C434.854 23.9593 436.611 22.8872 438.19 21.9235C439.48 21.1366 440.651 20.4218 442.162 20.4218C443.902 20.4218 445.422 19.8646 447.112 19.2447C449.231 18.4676 451.619 17.5919 455.046 17.5919C458.201 17.5919 459.3 18.9824 460.373 20.3398C461.396 21.634 462.395 22.898 465.13 22.898C467.632 22.898 469.786 21.6844 471.687 20.6127C473.191 19.7654 474.536 19.0069 475.773 19.0069C479.287 19.0069 480.658 18.7169 481.967 18.44C483.161 18.1873 484.303 17.9457 486.977 17.9457C489.711 17.9457 491.378 19.3783 493.084 20.845C494.873 22.3834 496.707 23.9593 499.861 23.9593C503.143 23.9593 505.463 22.624 507.385 21.5179C508.744 20.7357 509.905 20.0681 511.065 20.0681C513.519 20.0681 515.177 19.6489 516.879 19.2187C518.672 18.7652 520.514 18.2994 523.389 18.2994C525.63 18.2994 527.31 19.5375 528.991 20.7756C530.671 22.0137 532.352 23.2518 534.593 23.2518C536.994 23.2518 539.718 21.7914 542.245 20.4359C544.435 19.262 546.477 18.1667 548.037 18.1667C554.759 18.1667 557 16.9029 557 16.0001H73Z" fill="#3A3A3A"/>
<line x1="349.5" y1="3.5" x2="349.5" y2="28.5" stroke="#FF2626" stroke-width="3" stroke-linecap="round" stroke-linejoin="round"/>
</g>
<defs>
<clipPath id="clip0">
<rect width="349" height="32" fill="white"/>
</clipPath>
<clipPath id="clip1">
<rect width="208" height="32" fill="white" transform="translate(349)"/>
</clipPath>
</defs>
</svg>
