<svg width="48" height="50" viewBox="0 0 48 50" fill="none" xmlns="http://www.w3.org/2000/svg">
<g clip-path="url(#clip0)">
<path d="M11.961 87.1682C13.9918 92.3924 17.0629 95.3885 20.387 95.3885H55.1628C57.7187 95.3885 59.7902 91.2765 59.7902 86.203C59.7902 81.1294 57.7187 77.0174 55.1628 77.0174H20.387C19.7932 77.0174 19.4435 76.3447 19.288 75.9446C19.1326 75.5445 18.894 74.7031 19.044 73.5639L24.7523 30.3453L38.2602 20.4135C40.6571 18.6517 41.8799 13.3664 40.9924 8.61043C40.1049 3.85261 37.4432 1.42347 35.0464 3.18702L27.6182 8.6481L33.2632 -34.0951C33.9112 -39.0018 32.4326 -44.0233 29.9608 -45.3097C27.488 -46.5942 24.9592 -43.6609 24.3112 -38.7524L17.0213 16.4379L3.81162 26.1508C1.41478 27.9126 0.191962 33.1978 1.07948 37.9539C1.77087 41.6604 3.53867 43.9514 5.41945 43.9514C5.95268 43.9514 6.49585 43.7666 7.02547 43.3773L14.1554 38.1369L10.092 68.9048C9.24878 75.288 9.93023 81.9439 11.961 87.1682Z" fill="black"/>
</g>
<defs>
<clipPath id="clip0">
<rect width="46.6991" height="49.0075" fill="white" transform="translate(0.699097 0.867645)"/>
</clipPath>
</defs>
</svg>
